<?xml version="1.0" encoding="UTF-8" standalone="no"?>
<svg
   xmlns:dc="http://purl.org/dc/elements/1.1/"
   xmlns:cc="http://creativecommons.org/ns#"
   xmlns:rdf="http://www.w3.org/1999/02/22-rdf-syntax-ns#"
   xmlns:svg="http://www.w3.org/2000/svg"
   xmlns="http://www.w3.org/2000/svg"
   id="svg6"
   version="1.1"
   viewBox="0 0 16 16">
  <metadata
     id="metadata12">
    <rdf:RDF>
      <cc:Work
         rdf:about="">
        <dc:format>image/svg+xml</dc:format>
        <dc:type
           rdf:resource="http://purl.org/dc/dcmitype/StillImage" />
        <dc:title></dc:title>
      </cc:Work>
    </rdf:RDF>
  </metadata>
  <defs
     id="defs10" />
  <g
     id="g839">
    <path
       id="path2"
       style="fill:#ececec;fill-opacity:1;fill-rule:evenodd;stroke:none"
       d="m 7.9998,0 -2.281,3.438 -3.438,-1.156 1.156,3.438 -3.438,2.281 3.438,2.281 -1.156,3.438 3.438,-1.156 2.281,3.438 2.281,-3.438 3.438,1.156 -1.156,-3.438 3.438,-2.281 -3.438,-2.281 1.156,-3.438 -3.438,1.156 z m -1,4 h 2 v 5 h -2 z m 1.031,5.75 c 0.708,0 1.281,0.574 1.281,1.281 0,0.708 -0.574,1.281 -1.281,1.281 -0.708,0 -1.281,-0.574 -1.281,-1.281 0,-0.708 0.574,-1.281 1.281,-1.281 z" />
  </g>
</svg>
