<?xml version="1.0" encoding="UTF-8" standalone="no"?>
<svg
   xmlns:dc="http://purl.org/dc/elements/1.1/"
   xmlns:cc="http://creativecommons.org/ns#"
   xmlns:rdf="http://www.w3.org/1999/02/22-rdf-syntax-ns#"
   xmlns:svg="http://www.w3.org/2000/svg"
   xmlns="http://www.w3.org/2000/svg"
   id="svg6"
   version="1.1"
   viewBox="0 0 22 22">
  <metadata
     id="metadata12">
    <rdf:RDF>
      <cc:Work
         rdf:about="">
        <dc:format>image/svg+xml</dc:format>
        <dc:type
           rdf:resource="http://purl.org/dc/dcmitype/StillImage" />
        <dc:title></dc:title>
      </cc:Work>
    </rdf:RDF>
  </metadata>
  <defs
     id="defs10" />
  <g
     id="g839">
    <path
       id="path2"
       style="fill:#ececec;fill-opacity:1;fill-rule:evenodd;stroke:none"
       d="m 10.9998,0 -3.137,4.727 -4.727,-1.59 1.59,4.727 -4.727,3.137 4.727,3.137 -1.59,4.727 4.727,-1.59 3.137,4.727 3.137,-4.727 4.727,1.59 -1.59,-4.727 4.727,-3.137 -4.727,-3.137 1.59,-4.727 -4.727,1.59 z m -1.375,5.586 h 2.75 v 6.832 h -2.75 z m 1.418,7.82 c 0.973,0 1.762,0.789 1.762,1.762 0,0.973 -0.789,1.762 -1.762,1.762 -0.973,0 -1.762,-0.789 -1.762,-1.762 0,-0.973 0.789,-1.762 1.762,-1.762 z" />
  </g>
</svg>
