<?xml version="1.0" encoding="UTF-8" standalone="no"?>
<svg
   xmlns:dc="http://purl.org/dc/elements/1.1/"
   xmlns:cc="http://creativecommons.org/ns#"
   xmlns:rdf="http://www.w3.org/1999/02/22-rdf-syntax-ns#"
   xmlns:svg="http://www.w3.org/2000/svg"
   xmlns="http://www.w3.org/2000/svg"
   id="svg4"
   version="1.1"
   viewBox="0 0 24 24">
  <metadata
     id="metadata10">
    <rdf:RDF>
      <cc:Work
         rdf:about="">
        <dc:format>image/svg+xml</dc:format>
        <dc:type
           rdf:resource="http://purl.org/dc/dcmitype/StillImage" />
        <dc:title></dc:title>
      </cc:Work>
    </rdf:RDF>
  </metadata>
  <defs
     id="defs8" />
  <g
     id="g836">
    <path
       d="m 12 1 -3.137 4.727 -4.727 -1.59 1.59 4.727 -4.727 3.137 4.727 3.137 -1.59 4.727 4.727 -1.59 3.137 4.727 3.137 -4.727 4.727 1.59 -1.59 -4.727 4.727 -3.137 -4.727 -3.137 1.59 -4.727 -4.727 1.59 m -4.137 1.273 2 0 0 6 -2 0 z m 1 7.699 c 0.719 0 1.301 0.582 1.301 1.301 0 0.719 -0.582 1.301 -1.301 1.301 -0.719 0 -1.301 -0.582 -1.301 -1.301 0 -0.719 0.582 -1.301 1.301 -1.301"
       style="fill:#ececec;fill-opacity:1;stroke:none;display:inline;fill-rule:evenodd"
       id="path2" />
  </g>
</svg>
